<?xml version="1.0" encoding="UTF-8"?>
<!--Generator: Apple Native CoreSVG 175.5-->
<!DOCTYPE svg
PUBLIC "-//W3C//DTD SVG 1.1//EN"
       "http://www.w3.org/Graphics/SVG/1.1/DTD/svg11.dtd">
<svg version="1.1" xmlns="http://www.w3.org/2000/svg" xmlns:xlink="http://www.w3.org/1999/xlink" width="80.2734" height="84.9609">
 <g>
  <rect height="84.9609" opacity="0" width="80.2734" x="0" y="0"/>
  <path d="M28.5547 52.9688C23.7891 52.9688 19.9609 49.0234 19.9609 44.2969C19.9609 39.6094 23.7891 35.7422 28.5547 35.7422C33.2812 35.7422 37.1484 39.6094 37.1484 44.2969C37.1484 49.0234 33.2812 52.9688 28.5547 52.9688ZM12.1094 78.6328C8.35938 78.6328 6.28906 76.6016 6.28906 72.6953L6.28906 68.9062L15.4297 60.8984C16.9922 59.5703 18.4766 58.8281 20.1172 58.8281C21.8359 58.8281 23.4766 59.5703 25 60.9375L31.5234 66.7578L47.8906 52.3438C49.6094 50.8203 51.3672 50.1953 53.3594 50.1953C55.3125 50.1953 57.2656 50.8984 58.8672 52.3828L73.9844 66.6016L73.9844 72.6953C73.9844 76.6016 71.8359 78.6328 68.125 78.6328ZM11.875 84.9219L68.3984 84.9219C76.25 84.9219 80.2734 80.9375 80.2734 73.1641L80.2734 33.8672C80.2734 26.0938 76.25 22.1484 68.3984 22.1484L11.875 22.1484C3.94531 22.1484 0 26.0938 0 33.8672L0 73.1641C0 80.9375 3.94531 84.9219 11.875 84.9219ZM7.46094 15.8594L72.8516 15.8594C72.2656 12.3047 70.5859 10.3516 66.6797 10.3516L13.6328 10.3516C9.72656 10.3516 8.04688 12.3047 7.46094 15.8594ZM15.5078 5.03906L64.8047 5.03906C64.5703 1.71875 62.6953 0 59.0625 0L21.2109 0C17.6172 0 15.7422 1.71875 15.5078 5.03906Z" fill="#ffffff" fill-opacity="0.85"/>
 </g>
</svg>
